<svg width="123" height="46" viewBox="0 0 123 46" fill="none" xmlns="http://www.w3.org/2000/svg">
<path d="M29.8207 18.072C29.2127 18.072 28.7327 18.024 28.3807 17.928L20.5327 7.416V15.984L22.8127 16.464C22.8127 16.752 22.7807 17.016 22.7167 17.256C22.6527 17.496 22.5247 17.744 22.3327 18H16.5967C16.5967 17.6 16.6287 17.28 16.6927 17.04C16.7727 16.784 16.8687 16.64 16.9807 16.608L18.5407 16.152V4.56L16.5967 4.152C16.5967 3.864 16.6287 3.6 16.6927 3.36C16.7567 3.12 16.8847 2.872 17.0767 2.616H21.3727L29.2927 13.248V4.632L26.9887 4.152C26.9887 3.864 27.0207 3.6 27.0847 3.36C27.1487 3.12 27.2767 2.872 27.4687 2.616H33.2048C33.2048 3.016 33.1727 3.344 33.1087 3.6C33.0447 3.84 32.9487 3.976 32.8207 4.008L31.2847 4.464V17.232C31.2847 17.44 31.1807 17.608 30.9727 17.736C30.7807 17.848 30.5647 17.936 30.3247 18C30.1007 18.048 29.9327 18.072 29.8207 18.072Z" fill="#EA3434"/>
<path d="M40.1106 18.288C39.0066 18.288 38.0386 18.064 37.2066 17.616C36.3746 17.152 35.7266 16.52 35.2626 15.72C34.7986 14.904 34.5666 13.968 34.5666 12.912C34.5666 11.776 34.8306 10.752 35.3586 9.84C35.8866 8.928 36.5986 8.216 37.4946 7.704C38.3906 7.176 39.4066 6.912 40.5426 6.912C41.9986 6.912 43.1586 7.352 44.0226 8.232C44.9026 9.096 45.3426 10.256 45.3426 11.712C45.3426 12.144 45.2866 12.432 45.1746 12.576C45.0626 12.704 44.8626 12.768 44.5746 12.768H38.4306C38.5426 13.92 38.8946 14.808 39.4866 15.432C40.0786 16.04 40.8946 16.344 41.9346 16.344C42.4786 16.344 42.9986 16.24 43.4946 16.032C43.9906 15.824 44.4946 15.496 45.0066 15.048L45.4146 16.056C44.8706 16.728 44.1106 17.272 43.1346 17.688C42.1586 18.088 41.1506 18.288 40.1106 18.288ZM40.3506 8.208C39.8066 8.208 39.3586 8.488 39.0066 9.048C38.6546 9.608 38.4546 10.4 38.4066 11.424L42.0786 11.304C42.0466 10.296 41.8786 9.528 41.5746 9C41.2866 8.472 40.8786 8.208 40.3506 8.208Z" fill="#EA3434"/>
<path d="M50.9445 18.288C49.1365 18.288 48.2325 17.064 48.2325 14.616V9.216L47.1045 8.928C46.8645 8.88 46.7445 8.432 46.7445 7.584C47.5445 7.456 48.1925 7.368 48.6885 7.32C49.1845 7.256 49.5845 7.224 49.8885 7.224C51.1685 7.224 51.8085 7.752 51.8085 8.808V14.136C51.8085 15.32 52.2805 15.912 53.2245 15.912C53.6725 15.912 54.0725 15.808 54.4245 15.6C54.7925 15.376 55.0965 15.144 55.3365 14.904V9.216L54.2325 8.928C53.9765 8.88 53.8485 8.432 53.8485 7.584C54.6645 7.456 55.3125 7.368 55.7925 7.32C56.2885 7.256 56.6965 7.224 57.0165 7.224C57.6725 7.224 58.1525 7.352 58.4565 7.608C58.7765 7.864 58.9365 8.264 58.9365 8.808V15.48C58.9365 16.04 59.1685 16.32 59.6325 16.32C59.9525 16.32 60.2485 16.232 60.5205 16.056L60.7845 17.112C60.4005 17.464 59.9285 17.752 59.3685 17.976C58.8245 18.184 58.2885 18.288 57.7605 18.288C57.0885 18.288 56.5525 18.104 56.1525 17.736C55.7525 17.368 55.5525 16.856 55.5525 16.2H55.3845C53.8965 17.592 52.4165 18.288 50.9445 18.288Z" fill="#EA3434"/>
<path d="M62.1296 18C62.1296 17.168 62.2576 16.704 62.5136 16.608L63.6176 16.104V9.24L62.5136 8.904C62.2576 8.84 62.1296 8.384 62.1296 7.536C63.0096 7.408 63.6816 7.32 64.1456 7.272C64.6096 7.208 65.0016 7.176 65.3216 7.176C65.9616 7.176 66.4016 7.304 66.6416 7.56C66.8976 7.8 67.0256 8.248 67.0256 8.904V9.336H67.1696C67.5216 8.6 67.9776 8.016 68.5376 7.584C69.0976 7.136 69.6736 6.912 70.2656 6.912C71.6576 6.912 72.3536 7.528 72.3536 8.76C72.3536 9.24 72.1856 9.648 71.8496 9.984C71.5296 10.304 71.1376 10.464 70.6736 10.464C70.4816 10.08 70.2736 9.816 70.0496 9.672C69.8256 9.512 69.5536 9.432 69.2336 9.432C68.9136 9.432 68.5696 9.536 68.2016 9.744C67.8336 9.952 67.5056 10.224 67.2176 10.56V15.984L69.1136 16.464C69.1136 16.784 69.0816 17.064 69.0176 17.304C68.9536 17.528 68.8336 17.76 68.6576 18H62.1296Z" fill="#EA3434"/>
<path d="M75.2171 18.288C74.4971 18.288 73.8971 18.056 73.4171 17.592C72.9371 17.128 72.6971 16.528 72.6971 15.792C72.6971 13.968 73.8891 12.784 76.2731 12.24L79.1531 11.568V10.44C79.1531 9.624 79.0491 9.048 78.8411 8.712C78.6331 8.36 78.2891 8.184 77.8091 8.184C76.6731 8.184 76.0811 9.008 76.0331 10.656C75.9211 10.8 75.7451 10.912 75.5051 10.992C75.2651 11.072 75.0091 11.112 74.7371 11.112C74.2731 11.112 73.9051 11 73.6331 10.776C73.3771 10.536 73.2491 10.224 73.2491 9.84C73.2491 9.28 73.4731 8.784 73.9211 8.352C74.3691 7.904 74.9691 7.552 75.7211 7.296C76.4891 7.04 77.3531 6.912 78.3131 6.912C79.7531 6.912 80.8491 7.232 81.6011 7.872C82.3691 8.512 82.7531 9.456 82.7531 10.704V15.48C82.7531 16.04 82.9931 16.32 83.4731 16.32C83.6331 16.32 83.7931 16.296 83.9531 16.248C84.1131 16.184 84.2411 16.12 84.3371 16.056L84.6251 17.112C84.2411 17.464 83.7691 17.752 83.2091 17.976C82.6651 18.184 82.1531 18.288 81.6731 18.288C80.9531 18.288 80.3851 18.104 79.9691 17.736C79.5691 17.368 79.3691 16.856 79.3691 16.2H79.2011C78.7051 16.84 78.0971 17.352 77.3771 17.736C76.6571 18.104 75.9371 18.288 75.2171 18.288ZM77.0411 16.248C77.3771 16.248 77.7451 16.16 78.1451 15.984C78.5451 15.792 78.8971 15.544 79.2011 15.24V12.864L77.3291 13.32C76.8491 13.416 76.4811 13.616 76.2251 13.92C75.9691 14.208 75.8411 14.552 75.8411 14.952C75.8411 15.336 75.9531 15.648 76.1771 15.888C76.4011 16.128 76.6891 16.248 77.0411 16.248Z" fill="#EA3434"/>
<path d="M85.4901 18C85.4901 17.152 85.6181 16.688 85.8741 16.608L87.1461 16.104V2.424L85.8501 2.112C85.6101 2.048 85.4901 1.592 85.4901 0.744002C86.1301 0.648003 86.7541 0.568003 87.3621 0.504003C87.9701 0.424003 88.6021 0.384003 89.2581 0.384003C90.2501 0.384003 90.7461 0.928003 90.7461 2.016V16.008L92.6181 16.464C92.6181 16.8 92.5861 17.08 92.5221 17.304C92.4581 17.528 92.3381 17.76 92.1621 18H85.4901Z" fill="#EA3434"/>
<path d="M0.863998 30.864H13.224V34.8H11.4V32.52H8.016L7.968 43.344H10.248V45H3.768V43.344H6.048L6.072 32.52H2.688V34.8H0.863998V30.864Z" fill="#EA3434"/>
<path d="M17.7291 35.472C18.2731 35.104 18.8891 34.824 19.5771 34.632C20.2651 34.44 20.9531 34.344 21.6411 34.344C22.2171 34.344 22.5211 34.36 22.5531 34.392L22.9611 36.912L21.4011 37.248L21.1611 35.904C20.6651 35.904 20.1531 35.976 19.6251 36.12C19.1131 36.264 18.6411 36.464 18.2091 36.72V43.512H20.5611V45H14.3211V43.512H16.3371V36.648L14.0331 35.856L14.5371 34.368L17.7291 35.472Z" fill="#EA3434"/>
<path d="M31.6963 44.304C30.6563 45.008 29.5283 45.36 28.3123 45.36C26.9683 45.36 25.9443 45.088 25.2403 44.544C24.5523 44 24.2003 43.208 24.1843 42.168C24.1523 40.072 25.4803 39.024 28.1683 39.024L31.2643 39.048C31.2643 37.976 31.0643 37.184 30.6643 36.672C30.2643 36.144 29.6563 35.88 28.8403 35.88C28.4563 35.88 28.0803 35.904 27.7123 35.952C27.3443 36 27.0003 36.072 26.6803 36.168L26.4403 37.488L24.9043 37.2L25.2883 35.016C25.8963 34.792 26.4883 34.624 27.0643 34.512C27.6563 34.4 28.2243 34.344 28.7683 34.344C30.2083 34.344 31.2963 34.736 32.0323 35.52C32.7683 36.304 33.1363 37.448 33.1363 38.952V43.128L35.4163 43.872L34.9363 45.408L31.6963 44.304ZM28.2403 40.536C27.5523 40.536 27.0243 40.672 26.6563 40.944C26.2883 41.216 26.1043 41.616 26.1043 42.144C26.1043 43.264 26.8723 43.824 28.4083 43.824C29.5123 43.824 30.4643 43.52 31.2643 42.912V40.56L28.2403 40.536Z" fill="#EA3434"/>
<path d="M36.2111 45V43.512H38.2271V36.624L35.9231 35.832L36.4271 34.344L39.6191 35.448C40.1791 35.08 40.7711 34.808 41.3951 34.632C42.0351 34.44 42.6591 34.344 43.2671 34.344C44.0351 34.344 44.7391 34.496 45.3791 34.8C46.0351 35.088 46.5551 35.536 46.9391 36.144C47.3391 36.736 47.5391 37.488 47.5391 38.4V43.512H49.5551V45H44.5871V43.512H45.6671V38.784C45.6671 37.76 45.4031 37.024 44.8751 36.576C44.3631 36.112 43.7231 35.88 42.9551 35.88C42.5071 35.88 42.0351 35.952 41.5391 36.096C41.0591 36.24 40.5791 36.44 40.0991 36.696V43.512H41.1791V45H36.2111Z" fill="#EA3434"/>
<path d="M57.6694 36.216C57.3174 36.072 56.9814 35.96 56.6614 35.88C56.3414 35.8 55.9254 35.76 55.4134 35.76C54.8054 35.76 54.2534 35.896 53.7574 36.168C53.2774 36.44 53.0374 36.824 53.0374 37.32C53.0374 37.8 53.2374 38.176 53.6374 38.448C54.0534 38.72 54.6294 38.888 55.3654 38.952L56.3494 39.048C57.6614 39.176 58.5814 39.504 59.1094 40.032C59.6374 40.544 59.9014 41.224 59.9014 42.072C59.9014 42.728 59.7174 43.304 59.3494 43.8C58.9974 44.296 58.4934 44.68 57.8374 44.952C57.1974 45.224 56.4454 45.36 55.5814 45.36C54.7814 45.36 54.0134 45.256 53.2774 45.048C52.5414 44.856 51.9014 44.6 51.3574 44.28L50.9494 41.856L52.6054 41.448L52.9654 43.128C53.3334 43.352 53.7334 43.52 54.1654 43.632C54.6134 43.728 55.0614 43.776 55.5094 43.776C56.2134 43.776 56.8294 43.64 57.3574 43.368C57.9014 43.08 58.1734 42.664 58.1734 42.12C58.1734 41.64 58.0134 41.304 57.6934 41.112C57.3734 40.904 56.8134 40.752 56.0134 40.656L54.9574 40.536C53.7734 40.408 52.8694 40.064 52.2454 39.504C51.6214 38.944 51.3094 38.256 51.3094 37.44C51.3094 36.736 51.5094 36.152 51.9094 35.688C52.3094 35.224 52.8214 34.88 53.4454 34.656C54.0854 34.432 54.7494 34.32 55.4374 34.32C56.1894 34.32 56.8614 34.392 57.4534 34.536C58.0454 34.68 58.6134 34.888 59.1574 35.16L59.5894 37.44L58.0774 37.776L57.6694 36.216Z" fill="#EA3434"/>
<path d="M61.4661 45V43.512H63.4821V31.416L61.0821 30.888L61.4901 29.352L65.3541 30.24V43.512H67.3701V45H61.4661Z" fill="#EA3434"/>
<path d="M76.2979 44.304C75.2579 45.008 74.1299 45.36 72.9139 45.36C71.5699 45.36 70.5459 45.088 69.8419 44.544C69.1539 44 68.8019 43.208 68.7859 42.168C68.7539 40.072 70.0819 39.024 72.7699 39.024L75.8659 39.048C75.8659 37.976 75.6659 37.184 75.2659 36.672C74.8659 36.144 74.2579 35.88 73.4419 35.88C73.0579 35.88 72.6819 35.904 72.3139 35.952C71.9459 36 71.6019 36.072 71.2819 36.168L71.0419 37.488L69.5059 37.2L69.8899 35.016C70.4979 34.792 71.0899 34.624 71.6659 34.512C72.2579 34.4 72.8259 34.344 73.3699 34.344C74.8099 34.344 75.8979 34.736 76.6339 35.52C77.3699 36.304 77.7379 37.448 77.7379 38.952V43.128L80.0179 43.872L79.5379 45.408L76.2979 44.304ZM72.8419 40.536C72.1539 40.536 71.6259 40.672 71.2579 40.944C70.8899 41.216 70.7059 41.616 70.7059 42.144C70.7059 43.264 71.4739 43.824 73.0099 43.824C74.1139 43.824 75.0659 43.52 75.8659 42.912V40.56L72.8419 40.536Z" fill="#EA3434"/>
<path d="M85.9905 45.36C85.4145 45.36 84.8625 45.248 84.3345 45.024C83.8225 44.8 83.4065 44.408 83.0865 43.848C82.7665 43.272 82.6065 42.464 82.6065 41.424V36.192H80.6145V34.704H82.6065V32.376L84.4305 31.944V34.704H87.4305V36.192H84.4305V40.368C84.4305 41.44 84.5345 42.304 84.7425 42.96C84.9505 43.616 85.4065 43.944 86.1105 43.944C86.6065 43.944 87.1665 43.8 87.7905 43.512L88.1505 44.856C87.8145 44.984 87.4625 45.096 87.0945 45.192C86.7265 45.304 86.3585 45.36 85.9905 45.36Z" fill="#EA3434"/>
<path d="M89.6452 34.704H93.5332V43.512H95.5253V45H89.6452V43.512H91.6373V36.192H89.6452V34.704ZM92.3333 29.592C92.7813 29.592 93.1413 29.728 93.4133 30C93.6853 30.272 93.8213 30.632 93.8213 31.08C93.8213 31.528 93.6853 31.888 93.4133 32.16C93.1413 32.432 92.7813 32.568 92.3333 32.568C91.8853 32.568 91.5253 32.432 91.2533 32.16C90.9973 31.888 90.8692 31.528 90.8692 31.08C90.8692 30.632 90.9973 30.272 91.2533 30C91.5253 29.728 91.8853 29.592 92.3333 29.592Z" fill="#EA3434"/>
<path d="M102.286 34.344C103.358 34.344 104.286 34.568 105.07 35.016C105.87 35.448 106.494 36.08 106.942 36.912C107.39 37.728 107.614 38.712 107.614 39.864C107.614 41.576 107.126 42.92 106.15 43.896C105.174 44.872 103.886 45.36 102.286 45.36C101.246 45.36 100.334 45.144 99.5503 44.712C98.7663 44.264 98.1503 43.632 97.7023 42.816C97.2703 42 97.0543 41.016 97.0543 39.864C97.0543 38.712 97.2703 37.728 97.7023 36.912C98.1503 36.08 98.7663 35.448 99.5503 35.016C100.334 34.568 101.246 34.344 102.286 34.344ZM102.31 35.88C101.206 35.88 100.374 36.232 99.8143 36.936C99.2543 37.624 98.9743 38.6 98.9743 39.864C98.9743 41.128 99.2543 42.104 99.8143 42.792C100.374 43.48 101.206 43.824 102.31 43.824C103.43 43.824 104.27 43.48 104.83 42.792C105.406 42.104 105.694 41.128 105.694 39.864C105.694 38.6 105.406 37.624 104.83 36.936C104.27 36.232 103.43 35.88 102.31 35.88Z" fill="#EA3434"/>
<path d="M109.125 45V43.512H111.141V36.624L108.837 35.832L109.341 34.344L112.533 35.448C113.093 35.08 113.685 34.808 114.309 34.632C114.949 34.44 115.573 34.344 116.181 34.344C116.949 34.344 117.653 34.496 118.293 34.8C118.949 35.088 119.469 35.536 119.853 36.144C120.253 36.736 120.453 37.488 120.453 38.4V43.512H122.469V45H117.501V43.512H118.581V38.784C118.581 37.76 118.317 37.024 117.789 36.576C117.277 36.112 116.637 35.88 115.869 35.88C115.421 35.88 114.949 35.952 114.453 36.096C113.973 36.24 113.493 36.44 113.013 36.696V43.512H114.093V45H109.125Z" fill="#EA3434"/>
</svg>
