<svg width="41" height="26" viewBox="0 0 41 26" fill="none" xmlns="http://www.w3.org/2000/svg">
<path d="M14.352 21.072C13.744 21.072 13.264 21.024 12.912 20.928L5.064 10.416V18.984L7.344 19.464C7.344 19.752 7.312 20.016 7.248 20.256C7.184 20.496 7.056 20.744 6.864 21H1.128C1.128 20.6 1.16 20.28 1.224 20.04C1.304 19.784 1.4 19.64 1.512 19.608L3.072 19.152V7.56L1.128 7.152C1.128 6.864 1.16 6.6 1.224 6.36C1.288 6.12 1.416 5.872 1.608 5.616H5.904L13.824 16.248V7.632L11.52 7.152C11.52 6.864 11.552 6.6 11.616 6.36C11.68 6.12 11.808 5.872 12 5.616H17.736C17.736 6.016 17.704 6.344 17.64 6.6C17.576 6.84 17.48 6.976 17.352 7.008L15.816 7.464V20.232C15.816 20.44 15.712 20.608 15.504 20.736C15.312 20.848 15.096 20.936 14.856 21C14.632 21.048 14.464 21.072 14.352 21.072ZM29.0383 21C29.0383 20.728 29.1663 20.568 29.4223 20.52L30.8863 20.232V6.288L25.9663 6.024L25.4863 7.968C25.4223 8.224 25.2623 8.352 25.0063 8.352V5.616H37.5583V8.352C37.3023 8.352 37.1423 8.224 37.0783 7.968L36.5983 6.024L31.6783 6.288V20.232L33.8383 20.568C33.8383 20.728 33.8143 20.84 33.7663 20.904C33.7183 20.968 33.6063 21 33.4303 21H29.0383Z" fill="#F12222"/>
</svg>
